<?xml version="1.0" encoding="UTF-8" standalone="no"?>
<!-- Created with Inkscape (http://www.inkscape.org/) -->

<svg
   version="1.1"
   id="svg1"
   width="1685"
   height="1186"
   viewBox="0 0 1685 1186"
   sodipodi:docname="icon.svg"
   inkscape:version="1.4.3 (0d15f75, 2025-12-25)"
   xmlns:inkscape="http://www.inkscape.org/namespaces/inkscape"
   xmlns:sodipodi="http://sodipodi.sourceforge.net/DTD/sodipodi-0.dtd"
   xmlns="http://www.w3.org/2000/svg"
   xmlns:svg="http://www.w3.org/2000/svg">
  <defs
     id="defs1" />
  <sodipodi:namedview
     id="namedview1"
     pagecolor="#ffffff"
     bordercolor="#000000"
     borderopacity="0.25"
     inkscape:showpageshadow="2"
     inkscape:pageopacity="0.0"
     inkscape:pagecheckerboard="0"
     inkscape:deskcolor="#d1d1d1"
     showgrid="false"
     inkscape:zoom="0.44830494"
     inkscape:cx="816.40859"
     inkscape:cy="753.9511"
     inkscape:window-width="1470"
     inkscape:window-height="919"
     inkscape:window-x="0"
     inkscape:window-y="37"
     inkscape:window-maximized="0"
     inkscape:current-layer="g1" />
  <g
     inkscape:groupmode="layer"
     inkscape:label="Image"
     id="g1">
    <path
       style="fill:#8a6b2f;fill-opacity:0.996078"
       d="m 821.03689,916.08098 c -127.6,0.1365 -236.725,-0.075 -242.5,-0.4711 -5.775,-0.3956 -14.6506,-1.436 -19.7236,-2.3121 -5.0729,-0.8761 -13.6229,-2.9905 -19,-4.6988 -5.377,-1.7083 -12.7246,-4.3875 -16.328,-5.9538 -3.6034,-1.5662 -10.2292,-4.9158 -14.7239,-7.4435 -4.4948,-2.5277 -11.8966,-7.3472 -16.4484,-10.7101 -4.5519,-3.3629 -11.8186,-9.5302 -16.1483,-13.7051 -4.3298,-4.175 -10.2271,-10.5226 -13.1051,-14.1059 -2.8781,-3.5832 -7.5836,-10.0141 -10.4565,-14.2907 -2.873,-4.2767 -7.6396,-12.8199 -10.5925,-18.985 -2.9528,-6.1651 -6.5259,-14.7801 -7.9401,-19.1446 -1.4142,-4.3644 -3.4501,-12.2478 -4.5242,-17.5185 -1.0741,-5.2708 -2.4349,-14.9749 -3.02397,-21.5647 -0.73545,-8.2276 -0.97105,-84.82374 -0.75198,-244.48144 0.2973,-216.66849 0.43921,-233.21497 2.08405,-243 0.9708,-5.775 2.9074,-14.55 4.3036,-19.5 1.3962,-4.95 4.2646,-13.14252 6.3742,-18.2056 2.1097,-5.06308 6.3089,-13.40791 9.3317,-18.54406 3.0228,-5.13616 8.262,-13.06895 11.6426,-17.62842 3.3807,-4.55948 9.7705,-12.06463 14.1996,-16.67812 4.4292,-4.61348 12.1655,-11.4855 17.1919,-15.27115 5.0264,-3.78565 12.7389,-8.96336 17.1389,-11.50602 4.4,-2.54266 11.6602,-6.20459 16.1338,-8.13763 4.4736,-1.93304 12.4578,-4.66546 17.7425,-6.07206 5.2848,-1.40659 13.0996,-3.29329 17.3662,-4.19265 7.0267,-1.48118 30.2241,-1.6701 246.2575,-2.00557 169.39715,-0.26305 241.66381,-0.0501 249.41971,0.73494 6.0059,0.60791 14.1059,1.7615 18,2.56353 3.8941,0.80203 11.5517,2.87918 17.0169,4.61589 5.4651,1.73671 14.6901,5.59057 20.5,8.56412 5.8098,2.97355 13.9383,7.68866 18.0633,10.47802 4.125,2.78936 9.975,7.11814 13,9.61952 3.025,2.50137 8.3574,7.27435 11.8497,10.60661 3.4923,3.33226 8.7494,9.03403 11.6824,12.67059 2.933,3.63657 7.8695,10.50364 10.97,15.26015 3.1004,4.75651 7.3742,12.35613 9.4972,16.88805 2.123,4.53192 5.0358,11.83986 6.4728,16.23986 1.4371,4.4 3.8312,13.625 5.3204,20.5 l 2.7075,12.5 v 241.5 c 0,193.69646 -0.26,243.47944 -1.3136,251.50004 -0.7225,5.5 -2.1861,13.7524 -3.2524,18.3388 -1.0663,4.5863 -3.1122,11.7863 -4.5465,16 -1.4344,4.2136 -5.2915,12.889 -8.5714,19.2785 -3.2799,6.3895 -9.472,16.2895 -13.7603,22 -4.2883,5.7105 -12.4923,14.8827 -18.2312,20.3827 -5.7389,5.5 -14.1161,12.6278 -18.6159,15.8395 -4.4999,3.2118 -11.6127,7.7949 -15.8063,10.1847 -4.1936,2.3898 -12.1872,6.1752 -17.7635,8.4119 -5.5764,2.2368 -14.4451,5.156 -19.7083,6.487 -5.2632,1.3311 -13.1382,2.9363 -17.5,3.5671 -5.7431,0.8305 -71.92236,1.2153 -239.93051,1.3951 z m 140.16665,-131.3853 c 0.8998,0 1.3377,-1.3819 1.3469,-4.25 0.01,-2.3375 0.285,-5.2625 0.6167,-6.5 l 0.6029,-2.25 H 813.17259 662.57499 l -0.5882,2.3435 c -0.3235,1.2889 -0.191,3.8764 0.2945,5.75 l 0.8826,3.4065 147.8618,0.2585 c 81.3239,0.1423 148.08275,0.4798 148.35305,0.75 0.2703,0.2703 1.0914,0.4915 1.8248,0.4915 z m -148.16665,-28.0071 c 90.2648,0.014 137.49995,-0.32 137.49995,-0.9711 0,-0.5456 -4.214,-8.31115 -9.3645,-17.25688 -5.1504,-8.94573 -15.56695,-26.38996 -23.14795,-38.76496 -7.5809,-12.375 -18.7389,-30.6 -24.7953,-40.5 -6.0565,-9.9 -17.3102,-28.35 -25.0081,-41 -7.698,-12.65 -19.6167,-32.45 -26.4859,-44 -6.8693,-11.55 -13.3124,-22.17809 -14.318,-23.61798 -1.7295,-2.47644 -2.0596,-2.55986 -6.1043,-1.54295 -2.3518,0.59127 -4.435,1.17842 -4.6294,1.30478 -0.1944,0.12636 6.5181,12.29569 14.9167,27.04295 8.3985,14.74726 23.3687,40.3132 33.2671,56.8132 9.8984,16.5 23.398,38.55 29.9992,49 6.6012,10.45 15.0775,23.8375 18.8363,29.75 3.7588,5.9125 9.9842,15.74476 13.8342,21.84946 3.84995,6.10471 6.99995,11.29641 6.99995,11.53711 0,0.2407 -32.28745,0.1756 -71.74995,-0.14467 -39.4625,-0.32027 -94.025,-0.21077 -121.25,0.24333 -27.225,0.45409 -49.8437,0.66907 -50.2637,0.47772 -0.42,-0.19134 0.5475,-2.23003 2.1501,-4.53042 1.6026,-2.30039 6.4926,-10.25753 10.8667,-17.68253 4.3741,-7.425 15.2892,-25.425 24.2558,-40 8.9665,-14.575 28.9869,-47.65 44.4897,-73.5 15.5028,-25.85 29.8515,-49.8687 31.886,-53.37488 2.0344,-3.50618 3.4421,-6.63171 3.1282,-6.94561 -0.3139,-0.3139 -1.1769,-0.65971 -1.9179,-0.76845 -0.7409,-0.10875 -2.6404,-0.47759 -4.221,-0.81966 -2.7645,-0.59827 -3.1371,-0.1932 -9.7881,10.64333 -3.8029,6.1959 -13.8794,22.74027 -22.3923,36.76527 -8.5129,14.025 -25.377,41.925 -37.4759,62 -12.0988,20.075 -28.655,47.59373 -36.7916,61.15273 -8.1366,13.559 -15.9485,26.93154 -17.3599,29.71675 -1.4114,2.78522 -2.5661,5.52276 -2.5661,6.08336 0,0.6874 44.7742,1.0261 137.5,1.0401 z m -52,-15.43476 c 3.3,-0.73479 8.025,-1.63308 10.5,-1.99621 2.475,-0.36312 5.473,-1.20062 6.6623,-1.8611 1.1892,-0.66048 5.8878,-4.35087 10.4412,-8.20087 4.5534,-3.85 13.4202,-11.6125 19.7039,-17.25 6.2837,-5.6375 11.7101,-10.23083 12.0587,-10.2074 0.3487,0.0234 2.2668,2.16092 4.2627,4.75 1.9958,2.58907 8.2371,9.8824 13.8695,16.2074 5.6323,6.325 10.9479,12.0625 11.8123,12.75 0.9012,0.7168 4.405,1.25 8.2138,1.25 3.6533,0 6.9275,-0.28523 7.2761,-0.63384 0.3486,-0.34861 -1.2093,-2.71111 -3.4621,-5.25 -2.2528,-2.53889 -8.6505,-9.73966 -14.2172,-16.00172 -5.5667,-6.26207 -12.0261,-13.526 -14.3543,-16.14208 l -4.2332,-4.7565 3.9436,-4.31418 c 2.1689,-2.3728 4.1344,-4.10887 4.3678,-3.85793 0.2333,0.25094 5.4971,7.20625 11.6972,15.45625 6.2001,8.25 13.8457,18.15 16.9903,22 3.1445,3.85 6.6836,7.86624 7.8645,8.92498 1.3359,1.19776 5.0665,2.39204 9.875,3.16131 4.2503,0.67999 9.0779,1.53191 10.7279,1.89317 l 3,0.65684 -3,-2.23365 c -1.65,-1.22851 -5.5091,-4.80857 -8.5758,-7.95569 -3.0666,-3.14712 -11.6782,-13.31015 -19.1369,-22.5845 -7.4586,-9.27435 -15.3987,-18.41582 -17.6447,-20.31436 -2.246,-1.89855 -4.2938,-3.9997 -4.5507,-4.66921 -0.2997,-0.78096 2.0297,-0.36806 6.4986,1.15189 4.1321,1.40543 6.68,1.88105 6.2634,1.16921 -0.3862,-0.66 -2.3726,-3.6874 -4.4143,-6.72756 -2.0416,-3.04016 -5.7002,-7.72355 -8.1301,-10.40752 -3.6613,-4.04397 -4.8371,-4.77311 -6.8638,-4.25627 -1.3452,0.34303 -4.1332,2.02167 -6.1957,3.73033 -2.0625,1.70865 -3.75,3.74888 -3.75,4.53383 0,0.78496 0.5518,1.3147 1.2262,1.1772 0.6745,-0.1375 1.3589,0.65 1.5209,1.75 0.2035,1.38196 -0.8707,2.77255 -3.4763,4.5 -2.0739,1.375 -11.1966,9.7 -20.2726,18.5 -9.0759,8.8 -20.5609,19.6 -25.5221,24 -4.9612,4.4 -11.9354,10.54365 -15.4983,13.65255 -3.5628,3.1089 -7.6028,6.57258 -8.9778,7.69707 l -2.5,2.04453 z m 60.05,0.32782 c 17.5725,-0.0627 37.8,-0.43651 44.95,-0.83067 7.2484,-0.3996 10.3454,-0.80163 7,-0.90871 -3.3,-0.10562 -23.0877,-0.17163 -43.9727,-0.14668 -23.3314,0.0279 -38.3495,0.4222 -38.95,1.02271 -0.6364,0.63647 10.1664,0.93759 30.9727,0.86335 z m -93.05,-0.886 c 0.275,0 0.5,-0.225 0.5,-0.5 0,-0.275 -0.225,-0.5 -0.5,-0.5 -0.275,0 -0.5,0.225 -0.5,0.5 0,0.275 0.225,0.5 0.5,0.5 z m 2.624,-1.07895 c 0.8933,0.0434 3.5933,-1.00669 6,-2.33359 2.4068,-1.3269 6.401,-2.97726 8.876,-3.66747 2.475,-0.69021 6.75,-2.94927 9.5,-5.02014 2.75,-2.07086 12.407,-10.92457 21.46,-19.67491 l 16.46,-15.9097 3.2338,1.90799 3.2338,1.90799 1.1451,-4.25262 c 0.6298,-2.33894 2.6099,-6.53097 4.4002,-9.31561 1.7904,-2.78465 7.4913,-10.46299 12.6688,-17.06299 5.1775,-6.6 11.4352,-14.79938 13.906,-18.22085 2.4707,-3.42147 4.7996,-6.23397 5.1752,-6.25 0.3755,-0.016 3.036,3.90835 5.912,8.72085 2.876,4.8125 10.1465,16.4 16.1567,25.75 6.0101,9.35 12.7631,19.7 15.0066,23 2.2435,3.3 6.1571,9.15 8.697,13 2.5398,3.85 6.1764,9.62958 8.0813,12.84351 1.9049,3.21393 4.6786,6.47643 6.1638,7.25 1.4852,0.77357 4.778,1.40649 7.3174,1.40649 4.3275,0 4.5734,-0.1411 3.9214,-2.25 -0.3827,-1.2375 -1.5868,-4.05 -2.6759,-6.25 -1.089,-2.2 -11.3348,-18.175 -22.7684,-35.5 -11.4336,-17.325 -26.8765,-41.06623 -34.3176,-52.75828 -7.4412,-11.69205 -18.4001,-29.57901 -24.3533,-39.7488 -5.9531,-10.16979 -11.1251,-18.49106 -11.4933,-18.49172 -0.3681,-6.6e-4 -5.9592,9.1113 -12.4246,20.2488 -6.4655,11.1375 -14.0906,24.075 -16.9448,28.75 -2.8542,4.675 -13.8634,22.675 -24.4649,40 -10.6015,17.325 -24.1626,39.49178 -30.1359,49.25952 -5.9732,9.76773 -10.8604,17.98023 -10.8604,18.25 0,0.26976 2.8773,0.49048 6.394,0.49048 h 6.3941 l 5.8559,-9.516 c 3.2208,-5.23379 11.1802,-17.93319 17.6875,-28.22088 6.5074,-10.28768 13.3063,-21.19298 15.1087,-24.234 1.8025,-3.04102 5.7357,-9.57912 8.7406,-14.52912 3.0048,-4.95 10.1214,-16.875 15.8147,-26.5 5.6932,-9.625 12.3448,-20.7625 14.7814,-24.75 2.4365,-3.9875 4.6009,-7.25 4.8097,-7.25 0.2089,0 1.5083,2.22716 2.8877,4.94925 1.3794,2.72209 4.9945,9.25624 8.0336,14.52034 l 5.5256,9.57108 -5.0472,7.47966 c -2.776,4.11382 -5.2522,7.47967 -5.5026,7.47967 -0.2504,0 -1.6278,-1.77167 -3.0607,-3.93704 -2.4395,-3.68626 -2.5603,-4.41878 -1.8967,-11.5 0.4601,-4.9104 0.3531,-7.56296 -0.3052,-7.56296 -0.5577,0 -2.4292,1.61194 -4.159,3.58208 l -3.1451,3.58208 -2.0311,-2.58208 c -1.1171,-1.42014 -2.4653,-2.58208 -2.996,-2.58208 -0.5711,0 -0.8476,3.77537 -0.6774,9.25 l 0.2875,9.25 4.0306,-0.31452 c 3.5314,-0.27558 4.4293,0.12363 7.25,3.22335 1.7707,1.94583 3.2194,3.91121 3.2194,4.36752 0,0.4563 -1.4303,2.8308 -3.1784,5.27665 -1.7481,2.44585 -6.1121,8.497 -9.6978,13.447 -3.5856,4.95 -6.5909,9.12309 -6.6784,9.27354 -0.088,0.15044 -0.8986,-0.0102 -1.8023,-0.35699 -0.9037,-0.34679 -1.6431,-1.38869 -1.6431,-2.31533 0,-0.92664 2.0672,-3.691 4.5938,-6.14301 2.5266,-2.45202 6.0414,-6.70821 7.8108,-9.45821 1.7693,-2.75 3.5107,-5.7815 3.8697,-6.73667 0.411,-1.09371 -0.1993,-2.72721 -1.6487,-4.41215 l -2.3013,-2.67548 -2.3389,2.33885 -2.3388,2.33885 -1.5733,-2.40499 c -0.8653,-1.32275 -2.3608,-3.20226 -3.3233,-4.1767 -0.9625,-0.97444 -2.3769,-1.77171 -3.143,-1.77171 -0.7662,0 -1.6535,0.67873 -1.9718,1.50828 -0.3183,0.82956 0.7585,5.13526 2.393,9.56822 1.6345,4.43297 2.9718,9.17659 2.9718,10.54138 0,1.36479 -0.7309,3.89479 -1.6242,5.62222 -1.5646,3.02556 -1.6772,3.06959 -3.0709,1.20034 -0.7957,-1.06724 -2.3006,-3.06544 -3.3441,-4.44044 -1.794,-2.36372 -1.8992,-2.38644 -1.9291,-0.41667 -0.017,1.14584 -0.338,2.38964 -0.7124,2.764 -0.3743,0.37437 -1.9128,-0.49979 -3.4187,-1.94257 -1.506,-1.44278 -3.2311,-2.31855 -3.8336,-1.94615 -0.6026,0.3724 -1.9918,2.43374 -3.0871,4.58076 l -1.9915,3.90367 3.5365,5.52848 3.5365,5.52848 h -5.4836 c -3.0161,0 -6.5424,0.48235 -7.8363,1.0719 -1.2975,0.5912 -4.3813,4.54846 -6.8764,8.82431 l -4.5239,7.75242 5.5794,-3.35909 c 3.0687,-1.8475 7.7112,-5.45844 10.3168,-8.02431 3.81,-3.75199 5.4185,-4.66523 8.2167,-4.66523 1.9135,0 3.7015,0.2223 3.9732,0.49399 0.2717,0.2717 -11.1096,12.22298 -25.2918,26.55839 -14.1822,14.33542 -26.427,26.31759 -27.2107,26.62706 -1.1215,0.4429 -1.0791,0.57947 0.1992,0.64161 z m 96.376,-1.10275 c 2.2,-0.0302 5.2703,-0.33919 6.823,-0.68661 2.7618,-0.61799 2.6208,-0.80384 -6.5,-8.56983 -5.1277,-4.36598 -10.0705,-8.56204 -10.9842,-9.32459 -1.2057,-1.00632 -2.966,-1.19079 -6.4201,-0.67282 -3.8131,0.57182 -4.4596,0.93444 -3.2527,1.8246 0.8283,0.61102 2.7592,3.13595 4.2907,5.61095 1.5315,2.475 3.9678,5.78426 5.4139,7.3539 1.4462,1.56965 3.5294,3.22862 4.6294,3.68661 1.1,0.458 3.8,0.808 6,0.77779 z m -85.07,-14.8183 c 0.2752,0 2.0911,-1.39662 4.0352,-3.10359 1.9441,-1.70698 3.5348,-3.53762 3.5348,-4.0681 0,-0.53047 -1.3509,-0.003 -3.002,1.17314 -1.6512,1.1757 -3.467,3.00634 -4.0352,4.06809 -0.5683,1.06175 -0.808,1.93046 -0.5328,1.93046 z m 127.07,-25 c 0.275,0 0.5,-0.225 0.5,-0.5 0,-0.275 -0.225,-0.5 -0.5,-0.5 -0.275,0 -0.5,0.225 -0.5,0.5 0,0.275 0.225,0.5 0.5,0.5 z m -2.5,-1 c 0.7333,0 1.0333,-0.3 0.6667,-0.66667 -0.3667,-0.36666 -0.9667,-0.36666 -1.3334,0 -0.3666,0.36667 -0.067,0.66667 0.6667,0.66667 z m -2.5,-1 c 0.275,0 0.5,-0.225 0.5,-0.5 0,-0.275 -0.225,-0.5 -0.5,-0.5 -0.275,0 -0.5,0.225 -0.5,0.5 0,0.275 0.225,0.5 0.5,0.5 z m -25.441,-3 c 1.6175,0 2.941,-0.45 2.941,-1 0,-0.55 -1.6016,-1 -3.559,-1 -2.1181,0 -3.3088,0.40488 -2.941,1 0.3399,0.55 1.9415,1 3.559,1 z m 8.6633,-31 c 0.1914,0 -0.1775,-1.0125 -0.8198,-2.25 -0.6423,-1.2375 -1.6092,-2.80755 -2.1485,-3.48899 -0.5393,-0.68144 -1.4165,-0.96958 -1.9493,-0.64031 -0.5328,0.32928 0.2774,1.89933 1.8004,3.48899 1.523,1.58967 2.9257,2.89031 3.1172,2.89031 z m -32.2223,-114.70382 c 2.75,-0.25728 7.0648,-1.1162 9.5885,-1.90871 2.5237,-0.79252 5.7623,-2.6664 7.197,-4.1642 1.4346,-1.4978 3.3745,-4.52327 4.3109,-6.72327 1.0893,-2.55938 1.6671,-6.42738 1.6043,-10.73981 -0.063,-4.29943 -0.7978,-8.32164 -2.0306,-11.10847 -1.0628,-2.40276 -3.4909,-5.55734 -5.3957,-7.01019 -1.9047,-1.45284 -3.9832,-2.64153 -4.6188,-2.64153 -0.6356,0 -1.1556,-0.3949 -1.1556,-0.87756 0,-0.48265 0.7494,-1.49515 1.6653,-2.25 0.916,-0.75484 4.4522,-5.64744 7.8584,-10.87244 3.4061,-5.225 14.8835,-23.45 25.5052,-40.5 10.6217,-17.05 26.9462,-43.375 36.2765,-58.5 9.3304,-15.125 25.7208,-42.04531 36.42315,-59.8229 10.7024,-17.7776 19.1934,-32.58842 18.8689,-32.91295 -0.3246,-0.32453 -60.77925,-0.51031 -134.34375,-0.41285 -73.5645,0.0975 -135.6662,0.44689 -138.0037,0.7765 -2.3375,0.32961 -4.25,1.08452 -4.25,1.67758 0,0.59306 1.8761,4.25446 4.1692,8.13645 2.293,3.88199 8.0678,13.35817 12.8328,21.05817 4.765,7.7 15.7922,25.7 24.5048,40 8.7127,14.3 22.5846,36.8 30.8266,50 8.242,13.2 20.4623,33 27.1563,44 6.694,11 14.6793,23.88647 17.745,28.63659 l 5.574,8.6366 4.3457,-1.09365 c 2.3901,-0.60151 4.4792,-1.17163 4.6426,-1.26693 0.1633,-0.0953 -3.2615,-6.18964 -7.6108,-13.54295 -4.3492,-7.35331 -12.0587,-20.34466 -17.1322,-28.86966 -5.0734,-8.525 -12.1885,-20.45 -15.8112,-26.5 -3.6228,-6.05 -13.6403,-22.25 -22.261,-36 -8.6207,-13.75 -20.8421,-33.325 -27.1586,-43.5 -6.3165,-10.175 -13.9556,-22.55 -16.9758,-27.5 -3.0203,-4.95 -5.7681,-9.75026 -6.1062,-10.66724 -0.3726,-1.01017 -0.016,-1.89691 0.9037,-2.25 0.8353,-0.32052 54.5819,-0.58276 119.4369,-0.58276 104.6815,0 117.91815,0.17011 117.91815,1.51538 0,0.83347 -1.53525,3.87097 -3.41185,6.75 -1.8765,2.87904 -13.2123,21.43462 -25.1907,41.23462 -11.9784,19.8 -27.5318,45.45 -34.563,57 -7.0313,11.55 -21.4579,35.44938 -32.0593,53.10972 l -19.2751,32.10973 -7.5,0.40006 c -6.4904,0.3462 -8.1363,0.84054 -12.2266,3.67217 -2.5996,1.79967 -5.8924,5.26154 -7.3173,7.69306 -1.5279,2.60705 -2.8233,6.67244 -3.1572,9.90842 -0.3115,3.01811 -0.029,7.61999 0.6269,10.22639 0.6563,2.6064 2.1044,6.01844 3.2179,7.58232 1.1136,1.56387 3.8635,3.7815 6.1109,4.92805 2.2475,1.14655 6.1471,2.43326 8.6658,2.85934 2.5188,0.42609 6.8296,0.56421 9.5796,0.30692 z m -2.3746,-71.31969 c 0.344,0.0129 3.3996,-4.93038 6.7903,-10.98514 3.3907,-6.05476 9.5951,-16.74226 13.7877,-23.75 4.1926,-7.00774 12.7837,-21.06635 19.0914,-31.24135 6.3076,-10.175 14.4866,-23.225 18.1754,-29 3.6889,-5.775 13.1315,-20.85 20.9837,-33.5 7.8522,-12.65 14.8998,-23.71043 15.6614,-24.57874 0.7616,-0.86831 1.3847,-1.88081 1.3847,-2.25 0,-0.36919 -8.143,-0.67126 -18.0956,-0.67126 -17.1166,0 -18.2663,0.12082 -21.25,2.23298 -1.7349,1.22814 -10.6029,7.93662 -19.7066,14.90773 -9.1037,6.97111 -20.7364,16.36752 -25.8504,20.8809 -7.6759,6.77434 -9.5136,7.96817 -10.5325,6.84227 -0.6788,-0.75014 -8.3168,-8.89065 -16.9733,-18.09004 -8.6565,-9.19939 -15.4946,-17.12184 -15.1957,-17.60545 0.3064,-0.49573 2.8232,-0.5189 5.7697,-0.0531 2.8745,0.45439 5.4049,0.64752 5.6233,0.42918 0.2183,-0.21834 -0.9725,-1.10516 -2.6463,-1.97071 -1.6738,-0.86558 -5.0906,-1.57376 -7.593,-1.57376 -2.5164,0 -4.5496,-0.47015 -4.5496,-1.05202 0,-0.57861 1.373,-1.53064 3.051,-2.11562 1.6781,-0.58498 2.7652,-1.34907 2.4158,-1.69798 -0.3494,-0.34891 -15.4473,-0.63438 -33.5507,-0.63438 -18.1035,0 -32.8906,0.225 -32.8601,0.5 0.03,0.275 6.9888,11.525 15.4632,25 8.4743,13.475 18.8886,30.125 23.143,37 4.2543,6.875 11.0882,17.675 15.1863,24 4.0981,6.325 11.8023,18.7 17.1205,27.5 5.3181,8.8 13.0132,21.72692 17.1002,28.72649 4.0869,6.99957 7.7122,12.73707 8.0562,12.75 z m -0.1254,-21.02084 c -0.275,-0.0125 -4.4343,-6.64515 -9.2428,-14.7392 -4.8085,-8.09405 -11.446,-19.1185 -14.75,-24.49879 -3.304,-5.38029 -5.9747,-10.33029 -5.935,-11 0.04,-0.66971 1.5363,-2.43102 3.3258,-3.91402 l 3.2536,-2.69635 11.2694,17.44616 c 6.1981,9.59539 11.7113,17.71931 12.2515,18.05314 0.6241,0.38574 0.743,-1.16325 0.3262,-4.24981 -0.3607,-2.67123 -1.2925,-7.16584 -2.0707,-9.98803 -0.7782,-2.82219 -2.9728,-7.32219 -4.8769,-10 -1.9042,-2.67781 -6.2273,-8.83609 -9.607,-13.68506 -3.3796,-4.84898 -5.8343,-9.12398 -5.4548,-9.5 0.3795,-0.37603 1.811,0.66631 3.1812,2.31631 1.3702,1.65 6.3005,8.09411 10.9563,14.32024 6.0665,8.11256 9.4348,11.72538 11.8871,12.75 1.882,0.78637 4.0764,1.42976 4.8764,1.42976 0.8,0 1.9823,-1.5989 2.6272,-3.55311 0.645,-1.95421 0.9185,-4.5658 0.6078,-5.80354 -0.4583,-1.82626 0.8902,-3.66692 7.1549,-9.76564 4.2459,-4.13336 9.4229,-8.94677 11.5046,-10.69646 2.0816,-1.74969 4.8941,-3.18125 6.25,-3.18125 1.3558,0 2.4652,-0.41247 2.4652,-0.91659 0,-0.50413 -1.2107,-1.79853 -2.6905,-2.87645 l -2.6904,-1.95986 6.3,-5.83271 c 3.465,-3.208 9.5504,-9.67609 13.523,-14.37355 3.9726,-4.69746 8.025,-9.77834 9.0054,-11.29084 0.9804,-1.5125 1.3933,-2.74563 0.9175,-2.74029 -0.4758,0.005 -2.6955,1.46783 -4.9328,3.25 -2.2373,1.78216 -7.1864,5.94029 -10.998,9.24029 -3.8116,3.3 -12.5561,10.99095 -19.4322,17.09099 -6.8761,6.10005 -15.9456,14.7532 -20.1544,19.22923 l -7.6524,8.13824 -3.3852,-3.74698 c -1.8618,-2.06084 -6.807,-8.239 -10.9892,-13.72923 -4.1822,-5.49024 -13.6153,-16.52798 -20.9624,-24.52832 -7.3471,-8.00033 -17.4084,-19.17455 -22.3584,-24.8316 -4.95,-5.65705 -9.15,-10.69882 -9.3333,-11.20393 -0.1834,-0.50512 0.4916,-0.91589 1.5,-0.91282 1.0083,0.003 3.4685,0.45977 5.467,1.01489 1.9985,0.55513 5.4524,2.46512 7.6753,4.24443 2.2229,1.7793 15.1335,15.0476 28.6904,29.4851 13.5568,14.4375 24.9176,26.25 25.246,26.25 0.3285,0 5.1327,-4.46222 10.6759,-9.91604 5.5433,-5.45382 12.5537,-11.90878 15.5787,-14.34436 3.025,-2.43557 14.6133,-11.25978 25.7519,-19.60934 11.9182,-8.93406 21.5496,-15.44055 23.4055,-15.81173 2.5372,-0.50744 2.9925,-0.35589 2.3296,0.77537 -0.4531,0.77336 -3.6316,5.9061 -7.0633,11.4061 -3.4317,5.5 -9.0934,14.40456 -12.5816,19.78792 -3.4881,5.38335 -9.83,15.50835 -14.093,22.5 -4.263,6.99164 -12.861,21.03708 -19.1066,31.21208 -6.2457,10.175 -11.8703,18.3875 -12.4992,18.25 -0.6288,-0.1375 -1.0308,0.13914 -0.8933,0.61475 0.1375,0.47561 -2.9,6.77075 -6.75,13.9892 -3.85,7.21845 -7.225,13.11421 -7.5,13.1017 z m 15.6871,-31.19399 c 0.2503,-0.95609 0.2593,-2.75609 0.02,-4 -0.2392,-1.24391 -0.444,-0.46166 -0.4551,1.73834 -0.011,2.2 0.1846,3.21775 0.4349,2.26166 z m 0.9688,-10.49263 c 0.2739,-0.67703 0.2906,-2.02703 0.037,-3 -0.2535,-0.97297 -0.4776,-0.41903 -0.498,1.23097 -0.02,1.65 0.187,2.44606 0.461,1.76903 z m -54.6625,-20.26903 c -0.5536,0 -2.9471,-3.0375 -5.319,-6.75 -2.3719,-3.7125 -5.9548,-9.5625 -7.9621,-13 -3.1029,-5.31397 -3.3814,-6.25 -1.8591,-6.25 0.9848,0 3.9201,0.72561 6.5228,1.61247 2.6028,0.88686 4.9424,1.40249 5.199,1.14585 0.2566,-0.25663 -3.7276,-3.23224 -8.8538,-6.61247 -5.1263,-3.38022 -9.822,-6.14585 -10.4351,-6.14585 -0.613,0 -2.4446,-2.1375 -4.0701,-4.75 -1.6256,-2.6125 -6.3892,-10.09676 -10.5858,-16.6317 -4.1966,-6.53493 -7.6302,-12.27243 -7.6302,-12.75 0,-0.47756 1.3155,-0.8683 2.9233,-0.8683 1.6369,0 4.1943,1.06954 5.8118,2.4306 1.5888,1.33684 7.3198,8.64934 12.7356,16.25 5.4158,7.60067 13.4403,18.3194 17.8321,23.8194 4.3918,5.5 9.5587,11.65891 11.4821,13.68647 l 3.4969,3.68647 -4.1409,4.70432 c -2.2775,2.58737 -4.1409,5.09096 -4.1409,5.56353 0,0.47257 -0.453,0.85921 -1.0066,0.85921 z m 37.3073,-37.01167 c 0.1096,-0.006 5.1901,-4.88007 11.29,-10.83033 6.0999,-5.95026 14.1999,-13.29637 18,-16.32468 3.8001,-3.0283 8.0343,-6.14216 9.4093,-6.91967 2.3152,-1.30915 1.7607,-1.45261 -7.5,-1.94061 -5.5,-0.28983 -10.4001,-0.20471 -10.8892,0.18915 -0.489,0.39386 -7.0149,0.45412 -14.502,0.13391 -7.4871,-0.32021 -16.6495,-0.25701 -20.3609,0.14044 -3.7113,0.39746 -6.7012,1.02433 -6.644,1.39305 0.057,0.36873 3.4638,3.76166 7.5702,7.53985 6.7704,6.22907 7.7628,6.81233 10.6461,6.25676 1.7489,-0.33697 4.5178,-0.91239 6.1531,-1.27871 2.8158,-0.63073 2.6435,-0.30051 -3.25,6.22936 -3.4228,3.79246 -6.2212,7.35163 -6.2187,7.90927 0,0.55763 1.3754,2.47638 3.0507,4.26388 1.6753,1.7875 3.1357,3.24475 3.2454,3.23833 z m -0.8208,-22.98833 c -2.2269,0 -2.4167,-0.24966 -1.4967,-1.96862 0.5795,-1.08275 2.9578,-3.0845 5.2852,-4.44834 2.3274,-1.36385 6.2566,-2.79454 8.7316,-3.17933 l 4.5,-0.69961 -1.8902,2.13162 c -1.0396,1.17239 -4.2953,3.48897 -7.2349,5.14795 -2.9395,1.65898 -6.4923,3.01633 -7.895,3.01633 z m -24.4799,-12 c 0.7333,0 1.0333,-0.3 0.6667,-0.66667 -0.3667,-0.36666 -0.9667,-0.36666 -1.3334,0 -0.3666,0.36667 -0.067,0.66667 0.6667,0.66667 z m 27.852,-38.24673 148.60165,-0.25327 0.8169,-4.87289 c 0.4493,-2.68009 0.5349,-5.15509 0.1901,-5.5 -0.3448,-0.34491 -67.30195,-0.77337 -148.79375,-0.95213 -99.5386,-0.21835 -149.0476,0.0113 -150.8502,0.69987 -2.5495,0.97383 -2.6315,1.21415 -1.646,4.82502 0.5705,2.09007 1.4968,4.3641 2.0584,5.0534 0.8118,0.99623 31.4988,1.20133 149.6229,1 z"
       id="path1" />
  </g>
</svg>
