<?xml version="1.0" encoding="UTF-8" standalone="no"?>
<!-- Created with Inkscape (http://www.inkscape.org/) -->

<svg
   version="1.1"
   id="svg1"
   width="2282"
   height="1621"
   viewBox="0 0 2282 1621"
   sodipodi:docname="KAIROS2.svg"
   inkscape:version="1.4.3 (0d15f75, 2025-12-25)"
   xmlns:inkscape="http://www.inkscape.org/namespaces/inkscape"
   xmlns:sodipodi="http://sodipodi.sourceforge.net/DTD/sodipodi-0.dtd"
   xmlns="http://www.w3.org/2000/svg"
   xmlns:svg="http://www.w3.org/2000/svg">
  <defs
     id="defs1">
    <inkscape:perspective
       sodipodi:type="inkscape:persp3d"
       inkscape:vp_x="0 : 810.5 : 1"
       inkscape:vp_y="0 : 1000 : 0"
       inkscape:vp_z="2282 : 810.5 : 1"
       inkscape:persp3d-origin="1141 : 540.33333 : 1"
       id="perspective7" />
  </defs>
  <sodipodi:namedview
     id="namedview1"
     pagecolor="#ffffff"
     bordercolor="#000000"
     borderopacity="0.25"
     inkscape:showpageshadow="2"
     inkscape:pageopacity="0.0"
     inkscape:pagecheckerboard="0"
     inkscape:deskcolor="#d1d1d1"
     showgrid="false"
     inkscape:zoom="0.35558495"
     inkscape:cx="1243.0222"
     inkscape:cy="826.80664"
     inkscape:window-width="1470"
     inkscape:window-height="821"
     inkscape:window-x="0"
     inkscape:window-y="38"
     inkscape:window-maximized="0"
     inkscape:current-layer="g1" />
  <g
     inkscape:groupmode="layer"
     inkscape:label="Image"
     id="g1">
    <path
       style="fill:#8a6b2f;fill-opacity:0.99607843;stroke-width:1.06759"
       d="m 1225.8985,1279.9738 c -11.868,-10.6274 -32.4171,-29.3469 -45.665,-41.5989 l -24.0874,-22.2762 v 40.0931 40.0931 h -7.3807 -7.3805 v -54.7053 c 0,-30.0879 0.3984,-54.7052 0.8855,-54.7052 0.8748,0 29.0042,24.9458 71.523,63.427 l 21.8365,19.763 v -40.5912 -40.5913 h 7.5641 7.5642 l -0.7493,32.3714 c -0.412,17.8044 -0.7502,42.6474 -0.7511,55.2071 0,12.5598 -0.4025,22.8359 -0.892,22.8359 -0.4893,0 -10.5998,-8.6953 -22.4673,-19.3225 z m 168.6406,7.5258 c -6.5253,-5.9363 -15.4428,-14.1795 -19.8169,-18.3188 -4.3742,-4.1393 -16.4018,-15.4305 -26.728,-25.0916 -10.3264,-9.6614 -21.4267,-20.0503 -24.6676,-23.0868 l -5.8929,-5.5206 -0.025,40.4494 -0.026,40.4494 -7.0969,-0.2987 -7.0966,-0.2989 -0.2938,-54.4542 c -0.2013,-37.3142 0.079,-54.4544 0.8912,-54.4544 1.5358,0 17.0581,13.7134 49.4244,43.6636 14.3185,13.25 29.6154,27.3843 33.9929,31.4102 l 7.9595,7.3193 v -39.942 -39.9417 h 6.5289 c 3.591,0 6.5292,0.3388 6.5292,0.7529 v 54.4542 c 0,29.5358 -0.4097,53.7015 -0.9101,53.7015 -0.5004,0 -6.249,-4.8568 -12.7743,-10.7928 z m -321.2834,-44.9162 v -53.7015 h 7.3807 7.3807 v 53.7015 53.7015 h -7.3807 -7.3807 z m 446.2452,-113.5699 c -36.9004,-4.9695 -65.0462,-22.5095 -82.7209,-51.5496 -10.9227,-17.9465 -15.5548,-37.646 -14.6263,-62.2059 0.9009,-23.84513 6.7713,-41.07419 20.0784,-58.93058 11.888,-15.95199 29.0215,-28.3768 50.0303,-36.28117 16.12,-6.0649 26.6056,-7.71932 48.2451,-7.61205 15.8798,0.0773 19.5967,0.42691 29.513,2.76413 40.889,9.63711 71.5944,37.08248 82.288,73.55154 6.944,23.68033 4.1328,56.87773 -6.7774,80.04563 -10.8044,22.9425 -36.2121,45.1595 -61.5935,53.8587 -22.1835,7.6031 -41.2388,9.4838 -64.4367,6.3593 z m 42.2183,-8.0032 c 28.6398,-7.9979 49.6186,-36.0072 56.0986,-74.8993 1.4817,-8.8927 1.7488,-15.5941 1.2516,-31.3825 -0.6588,-20.91973 -1.8475,-27.97783 -7.265,-43.13785 -12.9287,-36.17942 -40.484,-55.08566 -77.9565,-53.48795 -29.6264,1.26304 -49.863,15.13765 -63.8791,43.79581 -8.1319,16.62666 -11.7797,35.17246 -11.7741,59.85639 0.014,30.4658 6.929,54.1281 21.3468,72.9736 19.3577,25.3018 50.2768,35.1902 82.1777,26.2818 z m 179.2013,7.5503 c -14.2739,-1.8801 -54.9598,-9.3364 -56.4194,-10.3393 -0.1167,-0.08 -0.572,-12.8972 -1.0112,-28.482 -0.6728,-23.8679 -0.5499,-28.3353 0.7804,-28.3337 0.9884,0 2.7556,3.293 4.7242,8.8004 8.172,22.8597 22.0724,38.2765 42.2744,46.8859 25.7976,10.9939 63.547,7.6175 78.8432,-7.0521 12.3616,-11.8552 15.9698,-31.0966 8.482,-45.2323 -5.7299,-10.8169 -21.2399,-19.2425 -55.1301,-29.9479 -34.4827,-10.893 -48.2278,-17.267 -59.964,-27.8068 -17.1763,-15.42513 -21.9453,-42.84532 -10.898,-62.65885 5.1393,-9.21722 11.2399,-15.23548 21.7336,-21.44006 10.5628,-6.24519 22.3494,-9.64147 39,-11.23799 18.3783,-1.76199 34.302,0.0291 77.0041,8.66082 l 8.2324,1.66408 v 26.01771 c 0,21.06568 -0.2892,26.01739 -1.5204,26.01739 -0.9448,0 -2.4665,-3.13323 -4.0211,-8.28117 -5.9436,-19.67788 -17.2758,-33.51598 -33.6328,-41.06857 -12.4246,-5.73688 -19.6834,-7.27119 -34.632,-7.32029 -15.5641,-0.05 -25.1489,2.17632 -35.9701,8.35895 -24.0477,13.73986 -24.6281,45.31344 -1.1252,61.19135 7.8707,5.317 18.372,9.8174 38.7982,16.62593 36.2205,12.0737 42.4996,14.6175 56.3648,22.8341 17.9394,10.6308 27.0682,27.8009 25.5388,48.0363 -1.1582,15.3224 -6.2041,25.2159 -18.1815,35.6476 -9.2657,8.0696 -19.9918,13.2832 -34.2652,16.6542 -7.1097,1.6791 -13.103,2.1984 -28.3213,2.4541 -10.6166,0.1785 -22.6244,-0.1129 -26.6838,-0.6478 z M 632.87687,1124.704 c 0.20808,-0.5172 3.15136,-2.2175 6.54045,-3.7782 4.65596,-2.1438 6.80697,-3.9155 8.80018,-7.2474 l 2.63788,-4.4098 v -89.0194 -89.01959 l -2.59259,-4.42394 c -2.00374,-3.41896 -3.92647,-4.99389 -8.4647,-6.93318 -10.94608,-4.67808 -9.07701,-5.01884 27.52187,-5.01884 36.62896,0 38.59502,0.35834 27.53153,5.01884 -3.58339,1.50929 -6.97552,3.86855 -8.51227,5.92002 -2.52384,3.3695 -2.55599,3.84159 -2.65819,39.14687 -0.0782,27.05279 -0.0261,62.95012 0.0956,66.03532 0.0195,0.4946 31.38155,-28.6347 40.77199,-37.86963 5.87102,-5.7733 13.82832,-13.4333 17.68322,-17.0217 13.25793,-12.34205 37.17643,-36.5164 39.89131,-40.31828 2.8754,-4.02655 3.54571,-9.64039 1.54555,-12.94416 -0.64544,-1.06597 -3.20034,-2.85219 -5.6776,-3.96944 -2.47715,-1.11715 -4.50381,-2.47363 -4.50381,-3.01463 0,-0.61459 10.21768,-0.98321 27.25145,-0.98321 22.0378,0 27.25177,0.25771 27.25177,1.34674 0,0.7407 -2.17175,1.92143 -4.82582,2.62378 -8.33937,2.20665 -16.79038,7.97249 -33.80352,23.06226 -15.48659,13.736 -48.78348,45.54464 -57.60233,55.02814 l -3.97002,4.26893 5.65935,7.2744 c 3.1127,4.0008 8.11695,10.4362 11.12072,14.3008 34.1719,43.9639 60.60708,76.2628 70.24155,85.822 6.72563,6.6729 16.41028,12.7405 21.74903,13.6256 2.23583,0.3708 3.92136,1.2497 3.92136,2.0445 0,1.1596 -6.00514,1.3938 -35.76784,1.3938 -29.7981,0 -35.76773,-0.2331 -35.76773,-1.3969 0,-0.7682 1.26448,-1.6773 2.81002,-2.0203 3.76334,-0.8349 5.38817,-5.8702 3.34359,-10.3623 -1.84214,-4.0474 -30.76272,-41.6414 -61.1096,-79.4365 l -9.16063,-11.4091 -10.56314,9.7087 -10.56304,9.7091 0.32462,36.0071 c 0.37164,41.2173 -0.0435,39.523 10.82911,44.1814 10.94717,4.6903 9.10123,5.0188 -28.19912,5.0188 -20.75552,0 -34.01052,-0.3691 -33.78061,-0.9406 z m 212.1464,-0.565 c 0,-0.8281 0.89414,-1.51 1.98702,-1.515 3.34978,-0.016 13.46515,-5.7174 17.27519,-9.7371 4.92585,-5.1966 12.47958,-19.1266 35.26533,-65.0342 14.84323,-29.9059 56.19484,-114.72663 64.7171,-132.74817 0.75664,-1.60025 2.02036,-2.25854 4.33536,-2.25854 3.05144,0 3.60977,0.68142 8.4344,10.28876 2.84184,5.65873 10.11244,19.99996 16.15722,31.86957 9.05221,17.7753 27.78921,55.03918 49.96631,99.37288 2.0709,4.1405 5.3753,10.916 7.3424,15.0565 9.6062,20.218 20.923,41.1709 24.0454,44.5196 3.4565,3.7068 11.1836,7.7859 17.1583,9.0574 1.7174,0.3656 3.1225,1.1078 3.1225,1.6493 0,0.6217 -12.553,0.9846 -34.0645,0.9846 -20.6419,0 -34.0647,-0.3738 -34.0647,-0.9489 0,-0.522 1.3904,-1.5382 3.0894,-2.2585 4.046,-1.715 6.1994,-5.5203 5.4065,-9.5537 -0.5299,-2.6922 -24.6334,-55.0388 -25.8312,-56.0976 -0.2139,-0.1891 -23.86554,-0.3837 -52.55892,-0.4325 l -52.17029,-0.089 -7.72033,15.8692 c -11.01016,22.6315 -15.55763,33.7889 -15.55274,38.1595 0.0109,4.7338 3.34793,9.7369 7.89388,11.8151 1.90122,0.8691 3.45664,2.0201 3.45664,2.5582 0,0.6038 -9.12425,0.9779 -23.84519,0.9779 -20.43861,0 -23.84508,-0.2151 -23.84508,-1.5057 z m 155.08313,-86.5748 c -3.24982,-6.4868 -14.29777,-28.8305 -24.55107,-49.65223 l -18.64208,-37.85765 -3.23575,6.23907 c -2.8048,5.40765 -43.2689,88.40581 -44.76046,91.81021 -0.43442,0.9919 9.67911,1.2548 48.27445,1.2548 h 48.82391 z m 102.6719,87.0451 c 0,-0.5694 0.8938,-1.2705 1.9871,-1.5581 10.9708,-2.8877 15.9415,-8.4282 16.7587,-18.6801 0.9906,-12.4296 1.5735,-168.01967 0.645,-172.27094 -1.1805,-5.40567 -5.4623,-9.47309 -13.5213,-12.84325 -3.9638,-1.65771 -5.743,-2.90909 -5.0308,-3.53869 0.6798,-0.60103 14.5033,-0.8571 36.0896,-0.66841 36.9851,0.32318 41.4878,0.96689 30.1173,4.30555 -6.9136,2.02988 -12.0459,6.30282 -13.6312,11.34907 -1.6268,5.17777 -1.6065,173.97587 0.024,179.15827 1.6407,5.2233 7.01,10.3034 13.0426,12.3399 2.7813,0.9389 5.0567,2.0975 5.0567,2.5746 0,0.4771 -16.0956,0.8674 -35.7679,0.8674 -23.8137,0 -35.7676,-0.3459 -35.7676,-1.0353 z m 97.6517,0.1095 c 0,-0.5093 1.7564,-1.4386 3.9029,-2.0649 5.5107,-1.6075 9.3853,-4.5666 12.3093,-9.4002 l 2.5231,-4.1712 0.3129,-88.3316 0.3129,-88.33129 -2.5838,-4.51699 c -2.1389,-3.73933 -3.7954,-5.03559 -9.622,-7.52818 -13.3647,-5.7183 -13.0237,-5.75417 49.9028,-5.25798 60.5617,0.47762 69.0481,1.06097 85.2577,5.86155 26.03,7.70866 40.4972,24.43902 40.4972,46.83268 0,15.82418 -4.7749,26.53868 -16.4542,36.92511 -3.7529,3.3372 -9.6544,7.4657 -13.1145,9.1748 -7.5802,3.7438 -22.4477,8.0234 -30.7835,8.8609 -3.3405,0.3358 -7.2884,0.8317 -8.7726,1.1026 l -2.6982,0.4921 2.2501,2.2076 c 1.2376,1.214 10.091,11.9188 19.6745,23.7883 42.8937,53.1264 51.9525,62.1317 70.6027,70.1846 4.8299,2.0855 8.4495,4.0857 8.0431,4.4449 -0.4066,0.3592 -12.0227,0.6494 -25.8142,0.645 l -25.0752,-0.01 -11.4252,-12.7901 c -14.61,-16.3556 -21.1732,-24.0696 -42.4791,-49.9292 -9.5521,-11.5935 -20.6481,-24.8055 -24.6577,-29.3602 l -7.2904,-8.281 h -11.2931 -11.2933 v 41.9454 c 0,41.5028 0.026,41.9927 2.5548,46.4243 2.1176,3.7121 3.7666,4.9937 9.6368,7.4898 3.8948,1.6564 7.0884,3.3501 7.0967,3.764 0.014,0.4144 -16.0806,0.7531 -35.7529,0.7531 -21.0834,0 -35.7676,-0.3802 -35.7676,-0.926 z m 101.6016,-107.9554 c 12.332,-2.3721 18.2297,-4.3843 25.5963,-8.7329 15.8892,-9.37953 24.3166,-28.02963 21.5439,-47.67823 -2.1229,-15.04377 -11.2307,-26.84272 -25.4042,-32.91043 -11.5564,-4.94736 -17.7219,-5.80644 -45.2731,-6.30912 l -25.8323,-0.47134 -0.2521,43.52031 c -0.1395,23.93628 -0.3024,45.77871 -0.3638,48.53911 -0.06,2.7606 0.1297,5.4252 0.4239,5.9214 0.8147,1.3736 40.468,-0.1298 49.5614,-1.8788 z m -259.7176,-186.0253 -6.529,-0.30103 1.8731,-3.21218 c 1.0306,-1.76671 12.967,-19.69901 26.5262,-39.84963 13.5585,-20.15059 34.7686,-51.76924 47.1329,-70.26363 12.3644,-18.4944 37.0352,-55.2856 54.8242,-81.75824 41.047,-61.08367 61.5403,-91.85934 61.5403,-92.41751 0,-0.24132 -1.9163,-1.30711 -4.2585,-2.36836 -15.5686,-7.05505 -23.6331,-25.79863 -17.3901,-40.41706 2.7425,-6.42135 9.464,-13.70161 15.7199,-17.02677 2.3239,-1.23516 4.4059,-2.36467 4.6268,-2.50998 0.427,-0.28102 -4.3713,-7.37259 -37.2782,-55.09619 -61.6089,-89.34942 -139.6911,-204.19694 -139.6911,-205.4652 0,-0.44483 86.609,-0.80878 192.4647,-0.80878 105.8554,0 192.4645,0.15536 192.4645,0.34522 0,1.33146 -60.6213,91.28425 -109.0161,161.76305 -6.0656,8.83313 -23.4237,34.12804 -38.5744,56.21091 -15.1506,22.08286 -28.2745,40.88625 -29.1644,41.78533 -1.4434,1.45774 -1.0741,1.91675 3.4107,4.24023 20.8526,10.80288 25.2406,34.91984 9.2197,50.67209 -2.7691,2.72258 -7.0407,5.79336 -9.4924,6.82399 l -4.4579,1.87382 7.6763,11.5433 c 4.2219,6.34884 21.6162,32.32127 38.6537,57.71657 17.0379,25.39529 36.1218,53.85206 42.4086,63.23729 6.2868,9.38521 18.404,27.45299 26.9265,40.15064 8.5223,12.69764 21.5323,32.12054 28.9107,43.16195 7.3784,11.04143 16.3525,24.36641 19.9427,29.6111 9.4763,13.84361 28.3175,42.15259 28.3175,42.54703 0,0.41524 -397.6885,0.23153 -406.7869,-0.18796 z m 382.9418,-11.79502 c 0,-0.61995 -8.5622,-13.51082 -44.3029,-66.69963 -13.54,-20.15062 -29.884,-44.54212 -36.3197,-54.20339 -6.4357,-9.66124 -23.5681,-35.182 -38.0716,-56.71279 -27.0845,-40.20745 -30.4351,-45.19918 -51.343,-76.48942 -6.7143,-10.04904 -12.5118,-18.29248 -12.8829,-18.31874 -0.3711,-0.0264 -10.0292,13.84188 -21.4623,30.81805 -11.4331,16.97621 -33.4261,49.61115 -48.8736,72.52214 -15.4476,22.91095 -35.479,52.72281 -44.5146,66.24856 -30.4577,45.59266 -63.5578,94.83013 -66.2837,98.59853 -1.4889,2.05841 -2.7072,3.97813 -2.7072,4.266 0,0.28786 82.5214,0.52341 183.3809,0.52341 100.8592,0 183.3806,-0.24875 183.3806,-0.55272 z m -327.3056,-21.7811 c 1.9402,-2.1595 35.2179,-49.82203 61.9942,-88.79267 25.0474,-36.45438 56.9219,-84.24994 73.3271,-109.95305 4.4923,-7.03891 8.3597,-12.79802 8.5933,-12.79802 0.5628,0 9.341,12.91805 21.8278,32.12053 25.7922,39.66405 71.7375,107.7271 105.5642,156.38243 8.9415,12.86087 16.2569,23.58863 16.2569,23.83945 0,0.25081 -11.8832,0.45606 -26.4074,0.45606 h -26.4075 l -31.71,-28.04478 -31.7095,-28.04478 4.5952,-3.94231 4.5953,-3.94232 29.9608,26.43464 29.9607,26.43466 13.6257,0.0248 13.6259,0.0248 -19.8709,-17.37234 c -10.929,-9.5548 -29.5195,-25.34917 -41.3119,-35.09862 l -21.4408,-17.72628 -2.9721,1.91116 c -1.6347,1.05116 -8.8319,7.13002 -15.9936,13.50864 l -13.0218,11.59752 14.7728,13.31574 c 8.125,7.32368 21.3021,19.41366 29.283,26.86662 l 14.5099,13.55085 -8.9604,0.28862 -8.9607,0.28863 -11.3234,-10.32629 c -6.2279,-5.67953 -17.1777,-15.74671 -24.333,-22.37155 -7.1549,-6.62487 -13.4374,-12.20895 -13.9605,-12.40908 -0.5229,-0.20012 -4.8662,3.20319 -9.6516,7.56295 -4.7854,4.35972 -16.0377,14.57365 -25.005,22.69765 l -16.3045,14.77089 h -8.3922 c -5.3486,0 -8.3924,-0.40064 -8.3924,-1.10456 0,-0.60751 13.1169,-12.8008 29.1486,-27.09627 l 29.1489,-25.99174 -15.185,-13.55625 c -8.3516,-7.45595 -15.6347,-13.55626 -16.1847,-13.55626 -0.9356,0 -43.5551,35.32053 -71.7149,59.43298 l -12.5547,10.75027 14.1935,0.005 14.1933,0.005 30.4722,-26.51118 30.4721,-26.51119 3.8763,3.42668 c 2.1321,1.88467 3.8764,3.70514 3.8764,4.0455 0,0.34036 -13.9014,13.22871 -30.8916,28.6408 l -30.8914,28.02117 h -27.725 c -22.0245,0 -27.4932,-0.25799 -26.5976,-1.25471 z m 89.3894,-85.24676 4.5096,-3.81004 -5.0301,-4.53068 c -2.7662,-2.49187 -5.3103,-4.53067 -5.6532,-4.53067 -0.3431,0 -1.96,1.91971 -3.5934,4.26603 -10.0316,14.40932 -23.2215,32.95178 -25.8827,36.3865 -1.7112,2.20829 -3.532,4.69262 -4.0455,5.52074 -0.5141,0.8281 7.1927,-5.4688 17.1256,-13.9931 9.933,-8.5243 20.0893,-17.21324 22.5697,-19.30878 z m 147.5259,31.04339 c -0.4515,-0.69009 -3.9843,-5.54582 -7.851,-10.79048 -3.8667,-5.24468 -10.7156,-14.84321 -15.2196,-21.33003 -4.5045,-6.48685 -8.5599,-11.79427 -9.0118,-11.79427 -0.4521,0 -3.0304,1.98918 -5.7297,4.42041 l -4.9077,4.42041 12.3357,10.37732 c 6.7847,5.70752 16.4234,13.87465 21.4194,18.14918 9.2534,7.9169 10.4166,8.7665 8.9647,6.54746 z m -76.986,-21.30325 15.7892,-13.52407 -15.574,-13.7316 -15.5733,-13.73157 -14.5168,12.36201 c -7.9843,6.7991 -14.9546,13.01257 -15.4898,13.8077 -0.7178,1.06644 2.8565,4.9356 13.6258,14.74989 8.0295,7.31732 14.903,13.3689 15.2746,13.44797 0.3715,0.0792 7.7806,-5.9421 16.4643,-13.38033 z m -19.8507,-9.6818 -3.846,-4.08884 3.8825,-3.43212 3.8826,-3.43211 4.1166,3.77958 4.1162,3.77955 -4.1528,3.74138 -4.1527,3.7414 z m -16.298,-47.78696 c -5.4228,-4.79367 -10.078,-8.51037 -10.3452,-8.2593 -0.2667,0.25106 -5.6761,7.64838 -12.0206,16.43847 l -11.5355,15.98202 6.5684,5.86777 6.5686,5.86779 15.312,-13.5905 15.3117,-13.59048 z m 71.9165,20.53339 c -1.5025,-2.33521 -6.7326,-9.9533 -11.6229,-16.9291 l -8.8911,-12.68327 -9.9044,8.94715 -9.9042,8.94715 15.2678,13.52435 15.2674,13.52437 6.2592,-5.54241 6.2593,-5.54242 z m -39.5861,-29.5721 c 6.1001,-5.37235 11.0914,-10.07392 11.0914,-10.44798 0,-0.37403 -4.4141,-7.60963 -9.8089,-16.07909 -5.3949,-8.46946 -10.4407,-16.71139 -11.2129,-18.31544 l -1.4042,-2.91645 -1.7163,2.41454 c -4.717,6.63656 -21.2774,33.17044 -21.2774,34.09163 0,0.93329 21.2954,20.53338 22.6895,20.88329 0.3014,0.0757 5.5389,-4.25816 11.6388,-9.6305 z m -16.071,-7.71657 -2.858,-3.66792 2.9028,-3.78957 3.8159,-4.01792 2.5803,2.93348 c 4.2939,4.88152 5.1425,3.67843 0.5966,8.45889 l -3.2679,3.52265 z m -20.5279,150.22496 c 0,-0.68794 14.5372,-15.38344 20.9381,-21.16604 l 2.6046,-2.35302 11.506,11.37782 c 6.3283,6.2578 11.5063,11.72069 11.5063,12.13974 0,0.41905 -10.4753,0.76193 -23.2779,0.76193 -12.8024,0 -23.2771,-0.3422 -23.2771,-0.76043 z m 34.0725,-332.23907 c 9.4292,-13.36848 30.7933,-44.40164 46.471,-67.50327 5.8072,-8.5571 11.7024,-17.13931 13.1,-19.07156 4.2122,-5.82316 20.9591,-30.32443 36.0193,-52.69773 7.8042,-11.5935 21.5938,-31.91975 30.6442,-45.16948 20.1605,-29.51546 33.1647,-49.63238 32.4769,-50.2405 -0.2839,-0.25095 -76.4433,-0.34189 -169.2427,-0.20207 l -168.7268,0.25426 17.5925,26.59979 c 9.6758,14.62991 21.9962,32.92355 27.3789,40.65256 5.3826,7.72898 17.0829,24.78978 26.0007,37.91287 14.5939,21.47574 38.0581,55.5436 49.2437,71.49765 2.3223,3.31242 7.9624,11.44293 12.5333,18.06779 25.1034,36.383 36.1663,51.69396 37.3525,51.69396 0.4606,0 4.5807,-5.30742 9.1565,-11.79427 z m -20.6506,-41.19251 c -5.9288,-8.67416 -20.0621,-29.09621 -31.4075,-45.38232 -29.2612,-42.00298 -37.2945,-53.59051 -62.2816,-89.83707 -12.1783,-17.66628 -23.8814,-34.26608 -26.0068,-36.88842 l -3.8642,-4.76789 8.2303,0.0418 8.2304,0.0416 59.34,51.91579 59.3401,51.9158 58.4733,-51.95751 58.4729,-51.95761 h 8.019 8.019 l -2.1993,2.76037 c -1.9332,2.42618 -11.6177,16.46111 -50.3886,73.024 -36.5548,53.32929 -56.0003,81.58221 -61.832,89.83709 -3.7052,5.24467 -9.1959,13.26205 -12.2015,17.8164 -3.0057,4.55435 -5.847,8.48953 -6.3143,8.74484 -0.4674,0.25532 -5.7005,-6.63283 -11.6292,-15.30697 z m 14.3681,-10.50143 c 1.1896,-1.79424 5.8988,-8.33712 10.4641,-14.53977 4.5654,-6.20263 8.3009,-11.63188 8.3009,-12.06503 0,-0.43311 -4.8544,-5.06076 -10.7873,-10.28362 l -10.7871,-9.49613 -10.8138,9.51596 c -5.9476,5.23377 -10.6737,10.01097 -10.5033,10.61601 0.4421,1.56645 20.6245,29.4176 21.3561,29.47073 0.3337,0.0242 1.5803,-1.42392 2.7704,-3.21815 z m -6.3198,-20.42414 -2.6211,-2.46638 2.8386,-3.27164 2.8388,-1.74718 2.4138,2.28589 2.4138,2.28589 -2.6312,2.68986 -2.6318,2.68989 z m -15.9908,-25.82431 9.4039,-8.35623 -12.2462,-10.32568 -12.2462,-10.32567 -5.9551,5.88391 c -3.2753,3.23615 -5.9674,6.47234 -5.9824,7.19154 -0.014,0.7192 2.69,5.01029 6.0115,9.53578 3.3216,4.52547 7.0086,9.69614 8.1931,11.49038 1.1851,1.79422 2.4383,3.26224 2.7861,3.26224 0.3475,0 4.8634,-3.76031 10.0353,-8.35627 z m 51.5335,4.59215 c 4.9897,-6.68033 13.3871,-19.16102 13.3871,-19.89688 0,-0.39315 -2.3909,-3.24785 -5.3134,-6.34378 -2.9219,-3.0959 -5.6405,-5.97697 -6.0412,-6.40235 -0.4005,-0.42535 -6.0576,3.7143 -12.5709,9.19925 l -11.8424,9.97264 9.0838,8.48803 c 4.9962,4.66842 9.3993,8.54636 9.7845,8.61761 0.3855,0.0713 1.9662,-1.56427 3.5125,-3.63452 z m 33.3829,-48.18078 c 7.2985,-10.90342 15.9102,-23.21211 19.1375,-27.35266 3.2271,-4.14051 6.2804,-8.20578 6.7847,-9.03389 1.2262,-2.01267 -22.4076,18.6919 -37.9128,33.21368 l -12.4201,11.63268 5.3303,5.66818 c 2.9314,3.11749 5.438,5.67453 5.5702,5.68228 0.1325,0.009 6.2118,-8.90687 13.5102,-19.81027 z M 1175.89,310.58628 c -13.4302,-11.86953 -24.8916,-22.25853 -25.4703,-23.08664 -0.5785,-0.82809 -1.0597,-1.08525 -1.0693,-0.57146 -0.014,0.51379 2.4733,4.12734 5.5171,8.03014 3.044,3.90277 11.5369,15.67817 18.8733,26.1675 7.3365,10.48935 13.8825,19.67013 14.5465,20.4017 0.9494,1.04578 2.3631,0.18748 6.6141,-4.01507 l 5.4068,-5.3452 z m 20.5658,-23.08664 -45.4087,-40.15064 11.3495,0.002 11.3495,0.002 34.0515,30.11125 c 18.7282,16.56064 34.3569,30.11072 34.7299,30.11072 0.3737,0 15.8869,-13.56668 34.4737,-30.14816 l 33.7952,-30.14813 10.9587,0.28608 10.9589,0.28608 -45.0465,39.89973 c -24.7756,21.94486 -45.2166,39.89974 -45.4246,39.89974 -0.208,0 -20.8126,-18.06782 -45.7871,-40.15069 z m 25.0311,-21.83189 -20.1189,-17.81688 20.6112,-0.27381 c 11.3362,-0.15062 29.4695,-0.15062 40.297,0 l 19.6856,0.27381 -19.6066,17.81688 c -10.7839,9.79924 -19.8639,17.81685 -20.1785,17.81685 -0.3142,0 -9.6247,-8.01761 -20.6898,-17.81685 z m 27.6455,-4.36815 4.9862,-4.9167 h -11.1887 -11.1888 l 5.5921,5.01883 c 3.0756,2.76033 5.8667,4.97287 6.2026,4.91671 0.3358,-0.0562 2.8541,-2.31464 5.5966,-5.01884 z m -211.0767,-67.62548 v -6.49789 l 204.3872,-0.0285 204.3872,-0.0283 v 6.52628 6.52627 h -204.3872 -204.3872 z"
       id="path2"
       sodipodi:nodetypes="sscccccssscccccscsscssccccccsssccccssssccccccccccccscsscsssscssssssccscssccssscssssscsscscsscssssscccscccscsssssccssssssssscscssssscsscccsssccccssssssscsssssscsscscsssccsscssscsccssssssscsssccccscccscsssscsccscssccssccccscscsccssssscccssscccssscsssssssssccsscscssssssscsscssscsssscscssssscccccccccsscsccsccccssssscssscssscccccssccsccsccscscsssscsscsssccccssssccccccccccscscccccscsccccccccsssscssssccccscccsscsssscssscsscsssscscscsscccccccccscssssscssscscsccccccccccccccscscscsscsscssssscscccssscsssscscccccsccccssscccssccscscccsssccccccccc" />
  </g>
</svg>
